<svg width="25" height="25" viewBox="0 0 25 25" fill="none" xmlns="http://www.w3.org/2000/svg">
<path d="M19.74 6.08H19.34L15.96 2.7C15.69 2.43 15.25 2.43 14.97 2.7C14.7 2.97 14.7 3.41 14.97 3.69L17.36 6.08H7.64L10.03 3.69C10.3 3.42 10.3 2.98 10.03 2.7C9.76 2.43 9.32 2.43 9.04 2.7L5.67 6.08H5.27C4.37 6.08 2.5 6.08 2.5 8.64C2.5 9.61 2.7 10.25 3.12 10.67C3.36 10.92 3.65 11.05 3.96 11.12C4.25 11.19 4.56 11.2 4.86 11.2H20.14C20.45 11.2 20.74 11.18 21.02 11.12C21.86 10.92 22.5 10.32 22.5 8.64C22.5 6.08 20.63 6.08 19.74 6.08Z" fill="white"/>
<path d="M19.55 12.5H5.37003C4.75003 12.5 4.28003 13.05 4.38003 13.66L5.22003 18.8C5.50003 20.52 6.25003 22.5 9.58003 22.5H15.19C18.56 22.5 19.16 20.81 19.52 18.92L20.53 13.69C20.65 13.07 20.18 12.5 19.55 12.5ZM11.11 18.95C11.11 19.34 10.8 19.65 10.42 19.65C10.03 19.65 9.72003 19.34 9.72003 18.95V15.65C9.72003 15.27 10.03 14.95 10.42 14.95C10.8 14.95 11.11 15.27 11.11 15.65V18.95ZM15.39 18.95C15.39 19.34 15.08 19.65 14.69 19.65C14.31 19.65 13.99 19.34 13.99 18.95V15.65C13.99 15.27 14.31 14.95 14.69 14.95C15.08 14.95 15.39 15.27 15.39 15.65V18.95Z" fill="white"/>
</svg>
