<?xml version="1.0" encoding="utf-8"?>
<!-- Uploaded to: SVG Repo, www.svgrepo.com, Generator: SVG Repo Mixer Tools -->
<svg fill="#000000" height="800px" width="800px" version="1.2" baseProfile="tiny" id="Layer_1" xmlns="http://www.w3.org/2000/svg" xmlns:xlink="http://www.w3.org/1999/xlink"
	  viewBox="0 0 256 256" xml:space="preserve">
<path d="M245.1,187c0,0,4.8,53.9-62.2,53.9H76.1c-66.9,0-62.2-53.9-62.2-53.9H245.1z M235.1,144.4H23c-10.9,0-19.8,6.7-19.8,15
	c0,8.3,8.9,15.1,19.8,15.1h212.1c11,0,19.9-6.8,19.9-15.1C255,151.1,246.1,144.4,235.1,144.4z M13.9,87.8c0,0-4.7-71.5,62.2-71.5
	H183c67,0,62.2,71.5,62.2,71.5H13.9z M177.6,51.5c0,3.9,3.2,7.1,7.1,7.1c3.9,0,7.1-3.2,7.1-7.1c0-3.9-3.2-7.1-7.1-7.1
	C180.8,44.4,177.6,47.6,177.6,51.5z M148,32.1c0,3.9,3.1,7.1,7.1,7.1c3.9,0,7.1-3.2,7.1-7.1c0-3.9-3.2-7.1-7.1-7.1
	C151.1,25,148,28.2,148,32.1z M124.5,51.5c0,3.9,3.2,7.1,7,7.1c3.9,0,7.1-3.2,7.1-7.1c0-3.9-3.2-7.1-7.1-7.1
	C127.6,44.4,124.5,47.6,124.5,51.5z M97.4,32.1c0,3.9,3.2,7.1,7.1,7.1c3.9,0,7.1-3.2,7.1-7.1c0-3.9-3.2-7.1-7.1-7.1
	C100.6,25,97.4,28.2,97.4,32.1z M68.2,51.5c0,3.9,3.2,7.1,7.1,7.1c3.9,0,7.1-3.2,7.1-7.1c0-3.9-3.2-7.1-7.1-7.1
	C71.4,44.4,68.2,47.6,68.2,51.5z M253.1,124.8c0-4.4-3.5-7.9-7.9-7.9c-5.3,0-7.6-2.2-11.4-5.8c-4.5-4.2-10.7-10-22.2-10
	c-11.5,0-17.7,5.8-22.2,10c-3.8,3.6-6.1,5.8-11.4,5.8c-5.3,0-7.6-2.2-11.4-5.8c-4.5-4.2-10.7-10-22.2-10c-11.5,0-17.7,5.8-22.2,10
	c-3.8,3.6-6.1,5.8-11.4,5.8c-5.3,0-7.6-2.2-11.4-5.8c-4.5-4.2-10.7-10-22.2-10c-11.5,0-17.7,5.8-22.2,10c-3.8,3.6-6.1,5.8-11.4,5.8
	c-5.3,0-7.6-2.2-11.4-5.8c-4.5-4.2-10.7-10-22.2-10c-4.4,0-7.9,3.5-7.9,7.9s3.5,7.9,7.9,7.9c5.3,0,7.6,2.2,11.4,5.8
	c4.5,4.2,10.7,10,22.2,10c11.5,0,17.7-5.8,22.2-10c3.8-3.6,6.1-5.8,11.4-5.8c5.3,0,7.6,2.2,11.4,5.8c4.5,4.2,10.7,10,22.2,10
	c11.5,0,17.7-5.8,22.2-10c3.8-3.6,6.1-5.8,11.4-5.8c5.3,0,7.6,2.2,11.4,5.8c4.5,4.2,10.7,10,22.2,10c11.5,0,17.7-5.8,22.2-10
	c3.8-3.6,6.1-5.8,11.4-5.8c5.3,0,7.6,2.2,11.4,5.8c4.5,4.2,10.7,10,22.2,10C249.6,132.7,253.1,129.2,253.1,124.8z"/>
</svg>