<svg width="29" height="28" viewBox="0 0 29 28" fill="none" xmlns="http://www.w3.org/2000/svg">
<g filter="url(#filter0_d_1_23856)">
<path d="M4 1.85482C4 1.18572 4.46922 0.645142 5.05 0.645142H5.575C7.02531 0.645142 8.2 1.99847 8.2 3.66933V14.5564C8.2 14.8891 8.43625 15.1613 8.725 15.1613H23.95C24.5308 15.1613 25 15.7018 25 16.3709C25 17.04 24.5308 17.5806 23.95 17.5806H21.7614C21.8205 17.7696 21.85 17.9738 21.85 18.1854C21.85 19.1872 21.1445 20 20.275 20C19.4055 20 18.7 19.1872 18.7 18.1854C18.7 17.9738 18.7328 17.7696 18.7886 17.5806H12.3114C12.3705 17.7696 12.4 17.9738 12.4 18.1854C12.4 19.1872 11.6945 20 10.825 20C9.95547 20 9.25 19.1872 9.25 18.1854C9.25 17.9738 9.28281 17.7696 9.33859 17.5806H8.725C7.27469 17.5806 6.1 16.2273 6.1 14.5564V3.66933C6.1 3.33667 5.86375 3.06449 5.575 3.06449H5.05C4.46922 3.06449 4 2.52392 4 1.85482Z" fill="white"/>
</g>
<g filter="url(#filter1_d_1_23856)">
<path d="M13.9278 0C13.9278 0 12.6229 1.16668 12.6724 1.99645C12.7143 2.70051 13.8329 2.79706 13.9278 3.49379C13.9777 3.86102 13.5093 4.49202 13.5093 4.49202C13.5093 4.49202 14.7647 3.70052 14.7647 2.99468C14.7647 2.28884 13.6453 2.18431 13.5093 1.49734C13.4079 0.985312 13.9278 0 13.9278 0ZM16.0201 0C16.0201 0 14.7152 1.16668 14.7647 1.99645C14.8066 2.70051 15.9252 2.79706 16.0201 3.49379C16.07 3.86102 15.6016 4.49202 15.6016 4.49202C15.6016 4.49202 16.857 3.70052 16.857 2.99468C16.857 2.28884 15.7376 2.18431 15.6016 1.49734C15.5002 0.985312 16.0201 0 16.0201 0ZM18.1124 0C18.1124 0 16.8075 1.16668 16.857 1.99645C16.8989 2.70051 18.0175 2.79706 18.1124 3.49379C18.1623 3.86102 17.6939 4.49202 17.6939 4.49202C17.6939 4.49202 18.9493 3.70052 18.9493 2.99468C18.9493 2.28884 17.8299 2.18431 17.6939 1.49734C17.5925 0.985312 18.1124 0 18.1124 0ZM12.0785 5.27188C12.1159 7.26672 12.5739 10.8692 14.0324 12.6962H18.0077C19.4662 10.8692 19.9242 7.26672 19.9616 5.27188H12.0785ZM20.4372 5.28577C20.4323 5.57126 20.4201 5.88632 20.3987 6.22338C21.1282 6.33755 21.6954 7.0856 21.6954 7.98581C21.6954 8.96451 21.0252 9.7639 20.2047 9.7639C20.0923 9.76381 19.9803 9.74848 19.8708 9.7182C19.7947 10.0183 19.7093 10.316 19.6135 10.6076C19.8063 10.6689 20.0051 10.6999 20.2047 10.6997C21.4641 10.6997 22.48 9.48799 22.48 7.98581C22.48 6.57728 21.5868 5.42411 20.4372 5.28577ZM11.28 13.2577C11.3194 13.4197 11.3808 13.6071 11.4619 13.7684C11.5309 13.9054 11.6107 14.0244 11.6824 14.0984C11.7539 14.1723 11.8093 14.1935 11.8355 14.1935H20.2047C20.2308 14.1935 20.2862 14.1724 20.3578 14.0984C20.4294 14.0244 20.5092 13.9054 20.5782 13.7684C20.6593 13.6071 20.7207 13.4197 20.7601 13.2577H11.28Z" fill="white"/>
</g>
<defs>
<filter id="filter0_d_1_23856" x="0" y="0.645142" width="29" height="27.3548" filterUnits="userSpaceOnUse" color-interpolation-filters="sRGB">
<feFlood flood-opacity="0" result="BackgroundImageFix"/>
<feColorMatrix in="SourceAlpha" type="matrix" values="0 0 0 0 0 0 0 0 0 0 0 0 0 0 0 0 0 0 127 0" result="hardAlpha"/>
<feOffset dy="4"/>
<feGaussianBlur stdDeviation="2"/>
<feComposite in2="hardAlpha" operator="out"/>
<feColorMatrix type="matrix" values="0 0 0 0 0 0 0 0 0 0 0 0 0 0 0 0 0 0 0.25 0"/>
<feBlend mode="normal" in2="BackgroundImageFix" result="effect1_dropShadow_1_23856"/>
<feBlend mode="normal" in="SourceGraphic" in2="effect1_dropShadow_1_23856" result="shape"/>
</filter>
<filter id="filter1_d_1_23856" x="7.28003" y="0" width="19.2" height="22.1935" filterUnits="userSpaceOnUse" color-interpolation-filters="sRGB">
<feFlood flood-opacity="0" result="BackgroundImageFix"/>
<feColorMatrix in="SourceAlpha" type="matrix" values="0 0 0 0 0 0 0 0 0 0 0 0 0 0 0 0 0 0 127 0" result="hardAlpha"/>
<feOffset dy="4"/>
<feGaussianBlur stdDeviation="2"/>
<feComposite in2="hardAlpha" operator="out"/>
<feColorMatrix type="matrix" values="0 0 0 0 0 0 0 0 0 0 0 0 0 0 0 0 0 0 0.25 0"/>
<feBlend mode="normal" in2="BackgroundImageFix" result="effect1_dropShadow_1_23856"/>
<feBlend mode="normal" in="SourceGraphic" in2="effect1_dropShadow_1_23856" result="shape"/>
</filter>
</defs>
</svg>
