<?xml version="1.0" encoding="iso-8859-1"?>
<!-- Uploaded to: SVG Repo, www.svgrepo.com, Generator: SVG Repo Mixer Tools -->
<svg fill="#000000" height="800px" width="800px" version="1.1" id="Layer_1" xmlns="http://www.w3.org/2000/svg" xmlns:xlink="http://www.w3.org/1999/xlink" 
	 viewBox="0 0 490.667 490.667" xml:space="preserve">
<g>
	<g>
		<g>
			<path d="M213.333,96c0,5.888,4.779,10.667,10.667,10.667s10.667-4.779,10.667-10.667c0-6.528,3.392-10.667,8.896-16.896
				C249.109,72.875,256,65.088,256,53.333c0-11.712-6.784-18.965-12.224-24.789c-5.824-6.229-9.109-10.133-9.109-17.877
				C234.667,4.779,229.888,0,224,0s-10.667,4.779-10.667,10.667c0,16.512,8.576,25.728,14.848,32.427
				c4.693,5.035,6.485,7.232,6.485,10.24c0,3.499-2.56,6.528-7.061,11.605C221.589,71.744,213.333,81.045,213.333,96z"/>
			<path d="M277.333,96c0,5.888,4.779,10.667,10.667,10.667s10.667-4.779,10.667-10.667c0-6.528,3.392-10.667,8.896-16.896
				C313.109,72.875,320,65.088,320,53.333c0-11.712-6.784-18.965-12.224-24.789c-5.824-6.229-9.109-10.133-9.109-17.877
				C298.667,4.779,293.888,0,288,0s-10.667,4.779-10.667,10.667c0,16.512,8.576,25.728,14.848,32.427
				c4.693,5.035,6.485,7.232,6.485,10.24c0,3.499-2.56,6.528-7.061,11.605C285.589,71.744,277.333,81.045,277.333,96z"/>
			<path d="M405.333,192c-7.339,0-14.507,1.365-21.333,3.84v-14.507C384,151.936,360.064,128,330.667,128H96
				c-29.397,0-53.333,23.936-53.333,53.333v85.333c0,76.459,62.208,138.667,138.667,138.667h64
				c60.395,0,111.744-38.869,130.731-92.843c9.045,4.757,19.008,7.509,29.269,7.509c35.285,0,64-28.715,64-64
				S440.619,192,405.333,192z M405.333,298.667c-8.384,0-16.597-2.581-23.616-7.36c0.043-0.171,0.021-0.341,0.043-0.533
				c1.387-7.851,2.24-15.872,2.24-24.128v-47.424c6.549-3.883,13.845-5.909,21.333-5.909c23.531,0,42.667,19.136,42.667,42.667
				C448,279.509,428.864,298.667,405.333,298.667z"/>
			<path d="M149.333,96c0,5.888,4.779,10.667,10.667,10.667s10.667-4.779,10.667-10.667c0-6.528,3.392-10.667,8.896-16.896
				C185.109,72.875,192,65.088,192,53.333c0-11.712-6.784-18.965-12.224-24.789c-5.824-6.229-9.109-10.133-9.109-17.877
				C170.667,4.779,165.888,0,160,0s-10.667,4.779-10.667,10.667c0,16.512,8.576,25.728,14.848,32.427
				c4.693,5.035,6.485,7.232,6.485,10.24c0,3.499-2.56,6.528-7.061,11.605C157.589,71.744,149.333,81.045,149.333,96z"/>
			<path d="M394.667,426.667H32c-5.888,0-10.667,4.779-10.667,10.667c0,29.397,23.936,53.333,53.333,53.333H352
				c29.397,0,53.333-23.936,53.333-53.333C405.333,431.445,400.555,426.667,394.667,426.667z"/>
		</g>
	</g>
</g>
</svg>