<svg width="20" height="14" viewBox="0 0 20 14" fill="none" xmlns="http://www.w3.org/2000/svg">
<path d="M10.5 12.82C11.31 12.3666 12.1277 12.04 12.953 11.84C13.7777 11.6386 14.6267 11.538 15.5 11.538C16.1 11.538 16.6393 11.5753 17.118 11.65C17.5973 11.7246 18.0197 11.8233 18.385 11.946C18.5383 12.01 18.6793 12.0003 18.808 11.917C18.936 11.8336 19 11.7023 19 11.523V2.50798C19 2.39264 18.968 2.28998 18.904 2.19998C18.84 2.10998 18.731 2.03331 18.577 1.96997C18.027 1.77464 17.5267 1.64131 17.076 1.56998C16.6253 1.49798 16.1 1.46198 15.5 1.46198C14.6267 1.46198 13.7557 1.59064 12.887 1.84798C12.0177 2.10598 11.222 2.49264 10.5 3.00798V12.82ZM10 13.956C9.84333 13.956 9.69933 13.9363 9.568 13.897C9.43667 13.8576 9.31133 13.8076 9.192 13.747C8.46533 13.3503 7.70867 13.0496 6.922 12.845C6.134 12.6403 5.32667 12.538 4.5 12.538C3.98 12.538 3.46867 12.5816 2.966 12.669C2.464 12.7563 1.97533 12.8963 1.5 13.089C1.13733 13.2336 0.796667 13.19 0.478 12.958C0.159333 12.726 0 12.4053 0 11.996V2.33098C0 2.08364 0.0649999 1.85398 0.195 1.64198C0.325 1.43064 0.507333 1.28331 0.742 1.19998C1.33333 0.944642 1.94533 0.757975 2.578 0.639975C3.21067 0.521308 3.85133 0.461975 4.5 0.461975C5.48 0.461975 6.43533 0.602975 7.366 0.884975C8.29733 1.16698 9.17533 1.57697 10 2.11497C10.8247 1.57697 11.7027 1.16698 12.634 0.884975C13.5653 0.602975 14.5207 0.461975 15.5 0.461975C16.1487 0.461975 16.7893 0.520975 17.422 0.638975C18.0553 0.757642 18.6673 0.944642 19.258 1.19998C19.4927 1.28331 19.675 1.43064 19.805 1.64198C19.935 1.85398 20 2.08364 20 2.33098V11.996C20 12.4053 19.828 12.7193 19.484 12.938C19.1393 13.158 18.7727 13.1953 18.384 13.05C17.9213 12.87 17.4487 12.74 16.966 12.66C16.4833 12.5786 15.9947 12.538 15.5 12.538C14.6733 12.538 13.8663 12.6403 13.079 12.845C12.2917 13.0496 11.5347 13.35 10.808 13.746C10.688 13.8073 10.5627 13.8576 10.432 13.897C10.3007 13.9363 10.1567 13.956 10 13.956ZM11.885 4.44798C11.885 4.37464 11.9103 4.30064 11.961 4.22598C12.0117 4.15064 12.0717 4.09464 12.141 4.05797C12.6497 3.82731 13.1873 3.65064 13.754 3.52798C14.3207 3.40664 14.9027 3.34598 15.5 3.34598C15.82 3.34598 16.1233 3.36364 16.41 3.39898C16.6967 3.43431 16.992 3.48531 17.296 3.55198C17.382 3.57198 17.4567 3.61698 17.52 3.68698C17.5833 3.75564 17.615 3.84131 17.615 3.94398C17.615 4.11198 17.565 4.23398 17.465 4.30998C17.365 4.38531 17.231 4.40264 17.063 4.36198C16.817 4.31198 16.565 4.27764 16.307 4.25898C16.0483 4.24031 15.7793 4.23098 15.5 4.23098C14.964 4.23098 14.4397 4.28231 13.927 4.38498C13.4143 4.48764 12.9277 4.63097 12.467 4.81497C12.2957 4.88031 12.1557 4.87864 12.047 4.80998C11.939 4.74064 11.885 4.61998 11.885 4.44798ZM11.885 9.87098C11.885 9.79764 11.9103 9.72031 11.961 9.63898C12.0117 9.55764 12.0717 9.49864 12.141 9.46198C12.6237 9.23064 13.1613 9.05731 13.754 8.94198C14.346 8.82664 14.928 8.76898 15.5 8.76898C15.82 8.76898 16.1233 8.78664 16.41 8.82197C16.6967 8.85731 16.992 8.90831 17.296 8.97498C17.382 8.99498 17.4567 9.03997 17.52 9.10997C17.5833 9.17864 17.615 9.26431 17.615 9.36697C17.615 9.53497 17.565 9.65698 17.465 9.73298C17.365 9.80831 17.231 9.82564 17.063 9.78498C16.817 9.73498 16.565 9.70064 16.307 9.68198C16.0483 9.66331 15.7793 9.65398 15.5 9.65398C14.9767 9.65398 14.462 9.70731 13.956 9.81398C13.4493 9.92131 12.966 10.0736 12.506 10.271C12.334 10.349 12.1873 10.348 12.066 10.268C11.9453 10.188 11.885 10.0556 11.885 9.87098ZM11.885 7.17898C11.885 7.10564 11.9103 7.03164 11.961 6.95697C12.0117 6.88164 12.0717 6.82531 12.141 6.78798C12.6497 6.55731 13.1873 6.38131 13.754 6.25998C14.3207 6.13798 14.9027 6.07697 15.5 6.07697C15.82 6.07697 16.1233 6.09464 16.41 6.12998C16.6967 6.16531 16.992 6.21631 17.296 6.28298C17.382 6.30298 17.4567 6.34764 17.52 6.41698C17.5833 6.48631 17.615 6.57231 17.615 6.67498C17.615 6.84298 17.565 6.96464 17.465 7.03998C17.365 7.11598 17.231 7.13331 17.063 7.09198C16.817 7.04198 16.565 7.00764 16.307 6.98898C16.0483 6.97098 15.7793 6.96198 15.5 6.96198C14.964 6.96198 14.4397 7.01297 13.927 7.11497C13.4137 7.21764 12.927 7.36131 12.467 7.54597C12.2957 7.61131 12.1557 7.60931 12.047 7.53998C11.939 7.47131 11.885 7.35098 11.885 7.17898Z" fill="#D15353"/>
</svg>
