<svg width="25" height="25" viewBox="0 0 25 25" fill="none" xmlns="http://www.w3.org/2000/svg">
<path d="M7 16.538C7.87333 16.538 8.72233 16.6383 9.547 16.839C10.3723 17.0396 11.19 17.3663 12 17.819V8.00798C11.278 7.49264 10.4823 7.10598 9.613 6.84798C8.74433 6.59064 7.87333 6.46198 7 6.46198C6.336 6.46198 5.70167 6.51698 5.097 6.62698C4.49233 6.73698 3.96 6.92131 3.5 7.17998V17.176C3.968 16.976 4.51833 16.8193 5.151 16.706C5.78367 16.5933 6.4 16.538 7 16.538ZM13 17.818C13.81 17.3653 14.6277 17.0386 15.453 16.838C16.2777 16.638 17.1267 16.538 18 16.538C18.6 16.538 19.2163 16.5943 19.849 16.707C20.4823 16.8196 21.0327 16.976 21.5 17.176V7.17998C21.04 6.92064 20.5077 6.73598 19.903 6.62598C19.2983 6.51598 18.664 6.46098 18 6.46098C17.1267 6.46098 16.2557 6.58964 15.387 6.84698C14.5177 7.10498 13.722 7.49164 13 8.00698V17.818ZM12.5 19.268C11.6867 18.712 10.8133 18.2846 9.88 17.986C8.94667 17.6866 7.98667 17.537 7 17.537C6.18067 17.537 5.374 17.6526 4.58 17.884C3.78667 18.1146 3.09333 18.4196 2.5 18.799V6.56998C3.06667 6.22331 3.74667 5.95198 4.54 5.75598C5.33267 5.55998 6.15267 5.46198 7 5.46198C7.98 5.46198 8.93533 5.60298 9.866 5.88498C10.7973 6.16698 11.6753 6.57697 12.5 7.11497C13.3247 6.57697 14.2027 6.16698 15.134 5.88498C16.0653 5.60298 17.0207 5.46198 18 5.46198C18.8473 5.46198 19.6643 5.55998 20.451 5.75598C21.2377 5.95198 21.9207 6.22298 22.5 6.56897V18.8C21.91 18.42 21.2173 18.115 20.422 17.885C19.6267 17.6536 18.8193 17.538 18 17.538C17.0133 17.538 16.0533 17.6876 15.12 17.987C14.1867 18.2856 13.3133 18.712 12.5 19.268ZM14.385 10.092V9.16197C14.9217 8.88997 15.497 8.68598 16.111 8.54998C16.725 8.41398 17.3547 8.34598 18 8.34598C18.3693 8.34598 18.7237 8.36964 19.063 8.41698C19.403 8.46431 19.7537 8.53164 20.115 8.61898V9.52698C19.7663 9.41564 19.4263 9.33831 19.095 9.29498C18.7637 9.25231 18.3987 9.23098 18 9.23098C17.3533 9.23098 16.7227 9.30364 16.108 9.44898C15.4927 9.59431 14.9183 9.80864 14.385 10.092ZM14.385 15.554V14.584C14.8963 14.3126 15.4683 14.1093 16.101 13.974C16.7337 13.8373 17.3667 13.769 18 13.769C18.3693 13.769 18.7237 13.7926 19.063 13.84C19.403 13.888 19.7537 13.9553 20.115 14.042V14.95C19.7663 14.8386 19.4263 14.7613 19.095 14.718C18.7637 14.6753 18.3987 14.654 18 14.654C17.3533 14.654 16.7227 14.732 16.108 14.888C15.4927 15.0446 14.9183 15.2666 14.385 15.554ZM14.385 12.842V11.873C14.9217 11.601 15.497 11.3973 16.111 11.262C16.7243 11.126 17.354 11.058 18 11.058C18.3693 11.058 18.7237 11.0813 19.063 11.128C19.403 11.176 19.7537 11.2436 20.115 11.331V12.238C19.7663 12.1266 19.4263 12.0496 19.095 12.007C18.7637 11.9636 18.3987 11.942 18 11.942C17.3533 11.942 16.7227 12.0213 16.108 12.18C15.4927 12.338 14.9183 12.5586 14.385 12.842Z" fill="#9DB2CE"/>
</svg>
