<svg width="21" height="15" viewBox="0 0 21 15" fill="none" xmlns="http://www.w3.org/2000/svg">
<path d="M5 11.538C5.87333 11.538 6.72233 11.6383 7.547 11.839C8.37233 12.0396 9.19 12.3663 10 12.819V3.00798C9.278 2.49264 8.48233 2.10598 7.613 1.84798C6.74433 1.59064 5.87333 1.46198 5 1.46198C4.336 1.46198 3.70167 1.51698 3.097 1.62698C2.49233 1.73698 1.96 1.92131 1.5 2.17998V12.176C1.968 11.976 2.51833 11.8193 3.151 11.706C3.78367 11.5933 4.4 11.538 5 11.538ZM11 12.818C11.81 12.3653 12.6277 12.0386 13.453 11.838C14.2777 11.638 15.1267 11.538 16 11.538C16.6 11.538 17.2163 11.5943 17.849 11.707C18.4823 11.8196 19.0327 11.976 19.5 12.176V2.17998C19.04 1.92064 18.5077 1.73598 17.903 1.62598C17.2983 1.51598 16.664 1.46098 16 1.46098C15.1267 1.46098 14.2557 1.58964 13.387 1.84698C12.5177 2.10498 11.722 2.49164 11 3.00698V12.818ZM10.5 14.268C9.68667 13.712 8.81333 13.2846 7.88 12.986C6.94667 12.6866 5.98667 12.537 5 12.537C4.18067 12.537 3.374 12.6526 2.58 12.884C1.78667 13.1146 1.09333 13.4196 0.5 13.799V1.56998C1.06667 1.22331 1.74667 0.951975 2.54 0.755975C3.33267 0.559975 4.15267 0.461975 5 0.461975C5.98 0.461975 6.93533 0.602975 7.866 0.884975C8.79733 1.16698 9.67533 1.57697 10.5 2.11497C11.3247 1.57697 12.2027 1.16698 13.134 0.884975C14.0653 0.602975 15.0207 0.461975 16 0.461975C16.8473 0.461975 17.6643 0.559975 18.451 0.755975C19.2377 0.951975 19.9207 1.22298 20.5 1.56897V13.8C19.91 13.42 19.2173 13.115 18.422 12.885C17.6267 12.6536 16.8193 12.538 16 12.538C15.0133 12.538 14.0533 12.6876 13.12 12.987C12.1867 13.2856 11.3133 13.712 10.5 14.268ZM12.385 5.09198V4.16197C12.9217 3.88997 13.497 3.68598 14.111 3.54998C14.725 3.41398 15.3547 3.34598 16 3.34598C16.3693 3.34598 16.7237 3.36964 17.063 3.41698C17.403 3.46431 17.7537 3.53164 18.115 3.61898V4.52698C17.7663 4.41564 17.4263 4.33831 17.095 4.29498C16.7637 4.25231 16.3987 4.23098 16 4.23098C15.3533 4.23098 14.7227 4.30364 14.108 4.44898C13.4927 4.59431 12.9183 4.80864 12.385 5.09198ZM12.385 10.554V9.58397C12.8963 9.31264 13.4683 9.10931 14.101 8.97398C14.7337 8.83731 15.3667 8.76898 16 8.76898C16.3693 8.76898 16.7237 8.79264 17.063 8.83998C17.403 8.88798 17.7537 8.95531 18.115 9.04198V9.94998C17.7663 9.83864 17.4263 9.76131 17.095 9.71798C16.7637 9.67531 16.3987 9.65398 16 9.65398C15.3533 9.65398 14.7227 9.73197 14.108 9.88797C13.4927 10.0446 12.9183 10.2666 12.385 10.554ZM12.385 7.84198V6.87298C12.9217 6.60098 13.497 6.39731 14.111 6.26198C14.7243 6.12598 15.354 6.05797 16 6.05797C16.3693 6.05797 16.7237 6.08131 17.063 6.12798C17.403 6.17598 17.7537 6.24364 18.115 6.33098V7.23798C17.7663 7.12664 17.4263 7.04964 17.095 7.00698C16.7637 6.96364 16.3987 6.94198 16 6.94198C15.3533 6.94198 14.7227 7.02131 14.108 7.17998C13.4927 7.33798 12.9183 7.55864 12.385 7.84198Z" fill="#9DB2CE"/>
</svg>
