<svg width="25" height="25" viewBox="0 0 25 25" fill="none" xmlns="http://www.w3.org/2000/svg">
<path d="M7 16.5379C7.87333 16.5379 8.72233 16.6382 9.547 16.8389C10.3723 17.0396 11.19 17.3662 12 17.8189V8.00791C11.278 7.49258 10.4823 7.10591 9.613 6.84791C8.74433 6.59058 7.87333 6.46191 7 6.46191C6.336 6.46191 5.70167 6.51691 5.097 6.62691C4.49233 6.73691 3.96 6.92125 3.5 7.17991V17.1759C3.968 16.9759 4.51833 16.8192 5.151 16.7059C5.78367 16.5932 6.4 16.5379 7 16.5379ZM13 17.8179C13.81 17.3652 14.6277 17.0386 15.453 16.8379C16.2777 16.6379 17.1267 16.5379 18 16.5379C18.6 16.5379 19.2163 16.5942 19.849 16.7069C20.4823 16.8196 21.0327 16.9759 21.5 17.1759V7.17991C21.04 6.92058 20.5077 6.73591 19.903 6.62591C19.2983 6.51591 18.664 6.46091 18 6.46091C17.1267 6.46091 16.2557 6.58958 15.387 6.84691C14.5177 7.10491 13.722 7.49158 13 8.00691V17.8179ZM12.5 19.2679C11.6867 18.7119 10.8133 18.2846 9.88 17.9859C8.94667 17.6866 7.98667 17.5369 7 17.5369C6.18067 17.5369 5.374 17.6526 4.58 17.8839C3.78667 18.1146 3.09333 18.4196 2.5 18.7989V6.56991C3.06667 6.22325 3.74667 5.95191 4.54 5.75591C5.33267 5.55991 6.15267 5.46191 7 5.46191C7.98 5.46191 8.93533 5.60291 9.866 5.88491C10.7973 6.16691 11.6753 6.57691 12.5 7.11491C13.3247 6.57691 14.2027 6.16691 15.134 5.88491C16.0653 5.60291 17.0207 5.46191 18 5.46191C18.8473 5.46191 19.6643 5.55991 20.451 5.75591C21.2377 5.95191 21.9207 6.22291 22.5 6.56891V18.7999C21.91 18.4199 21.2173 18.1149 20.422 17.8849C19.6267 17.6536 18.8193 17.5379 18 17.5379C17.0133 17.5379 16.0533 17.6876 15.12 17.9869C14.1867 18.2856 13.3133 18.7119 12.5 19.2679ZM14.385 10.0919V9.16191C14.9217 8.88991 15.497 8.68591 16.111 8.54991C16.725 8.41391 17.3547 8.34591 18 8.34591C18.3693 8.34591 18.7237 8.36958 19.063 8.41691C19.403 8.46425 19.7537 8.53158 20.115 8.61891V9.52691C19.7663 9.41558 19.4263 9.33825 19.095 9.29491C18.7637 9.25225 18.3987 9.23091 18 9.23091C17.3533 9.23091 16.7227 9.30358 16.108 9.44891C15.4927 9.59425 14.9183 9.80858 14.385 10.0919ZM14.385 15.5539V14.5839C14.8963 14.3126 15.4683 14.1092 16.101 13.9739C16.7337 13.8372 17.3667 13.7689 18 13.7689C18.3693 13.7689 18.7237 13.7926 19.063 13.8399C19.403 13.8879 19.7537 13.9552 20.115 14.0419V14.9499C19.7663 14.8386 19.4263 14.7612 19.095 14.7179C18.7637 14.6752 18.3987 14.6539 18 14.6539C17.3533 14.6539 16.7227 14.7319 16.108 14.8879C15.4927 15.0446 14.9183 15.2666 14.385 15.5539ZM14.385 12.8419V11.8729C14.9217 11.6009 15.497 11.3972 16.111 11.2619C16.7243 11.1259 17.354 11.0579 18 11.0579C18.3693 11.0579 18.7237 11.0812 19.063 11.1279C19.403 11.1759 19.7537 11.2436 20.115 11.3309V12.2379C19.7663 12.1266 19.4263 12.0496 19.095 12.0069C18.7637 11.9636 18.3987 11.9419 18 11.9419C17.3533 11.9419 16.7227 12.0212 16.108 12.1799C15.4927 12.3379 14.9183 12.5586 14.385 12.8419Z" fill="white"/>
</svg>
