<svg width="24" height="25" viewBox="0 0 24 25" fill="none" xmlns="http://www.w3.org/2000/svg">
<path d="M12.5 17.82C13.31 17.3666 14.1277 17.04 14.953 16.84C15.7777 16.6386 16.6267 16.538 17.5 16.538C18.1 16.538 18.6393 16.5753 19.118 16.65C19.5973 16.7246 20.0197 16.8233 20.385 16.946C20.5383 17.01 20.6793 17.0003 20.808 16.917C20.936 16.8336 21 16.7023 21 16.523V7.50798C21 7.39264 20.968 7.28998 20.904 7.19998C20.84 7.10998 20.731 7.03331 20.577 6.96997C20.027 6.77464 19.5267 6.64131 19.076 6.56998C18.6253 6.49798 18.1 6.46198 17.5 6.46198C16.6267 6.46198 15.7557 6.59064 14.887 6.84798C14.0177 7.10598 13.222 7.49264 12.5 8.00798V17.82ZM12 18.956C11.8433 18.956 11.6993 18.9363 11.568 18.897C11.4367 18.8576 11.3113 18.8076 11.192 18.747C10.4653 18.3503 9.70867 18.0496 8.922 17.845C8.134 17.6403 7.32667 17.538 6.5 17.538C5.98 17.538 5.46867 17.5816 4.966 17.669C4.464 17.7563 3.97533 17.8963 3.5 18.089C3.13733 18.2336 2.79667 18.19 2.478 17.958C2.15933 17.726 2 17.4053 2 16.996V7.33098C2 7.08364 2.065 6.85398 2.195 6.64198C2.325 6.43064 2.50733 6.28331 2.742 6.19998C3.33333 5.94464 3.94533 5.75798 4.578 5.63998C5.21067 5.52131 5.85133 5.46198 6.5 5.46198C7.48 5.46198 8.43533 5.60298 9.366 5.88498C10.2973 6.16698 11.1753 6.57697 12 7.11497C12.8247 6.57697 13.7027 6.16698 14.634 5.88498C15.5653 5.60298 16.5207 5.46198 17.5 5.46198C18.1487 5.46198 18.7893 5.52098 19.422 5.63898C20.0553 5.75764 20.6673 5.94464 21.258 6.19998C21.4927 6.28331 21.675 6.43064 21.805 6.64198C21.935 6.85398 22 7.08364 22 7.33098V16.996C22 17.4053 21.828 17.7193 21.484 17.938C21.1393 18.158 20.7727 18.1953 20.384 18.05C19.9213 17.87 19.4487 17.74 18.966 17.66C18.4833 17.5786 17.9947 17.538 17.5 17.538C16.6733 17.538 15.8663 17.6403 15.079 17.845C14.2917 18.0496 13.5347 18.35 12.808 18.746C12.688 18.8073 12.5627 18.8576 12.432 18.897C12.3007 18.9363 12.1567 18.956 12 18.956ZM13.885 9.44798C13.885 9.37464 13.9103 9.30064 13.961 9.22598C14.0117 9.15064 14.0717 9.09464 14.141 9.05797C14.6497 8.82731 15.1873 8.65064 15.754 8.52798C16.3207 8.40664 16.9027 8.34598 17.5 8.34598C17.82 8.34598 18.1233 8.36364 18.41 8.39898C18.6967 8.43431 18.992 8.48531 19.296 8.55198C19.382 8.57198 19.4567 8.61698 19.52 8.68698C19.5833 8.75564 19.615 8.84131 19.615 8.94398C19.615 9.11198 19.565 9.23398 19.465 9.30998C19.365 9.38531 19.231 9.40264 19.063 9.36198C18.817 9.31198 18.565 9.27764 18.307 9.25898C18.0483 9.24031 17.7793 9.23098 17.5 9.23098C16.964 9.23098 16.4397 9.28231 15.927 9.38498C15.4143 9.48764 14.9277 9.63097 14.467 9.81497C14.2957 9.88031 14.1557 9.87864 14.047 9.80998C13.939 9.74064 13.885 9.61998 13.885 9.44798ZM13.885 14.871C13.885 14.7976 13.9103 14.7203 13.961 14.639C14.0117 14.5576 14.0717 14.4986 14.141 14.462C14.6237 14.2306 15.1613 14.0573 15.754 13.942C16.346 13.8266 16.928 13.769 17.5 13.769C17.82 13.769 18.1233 13.7866 18.41 13.822C18.6967 13.8573 18.992 13.9083 19.296 13.975C19.382 13.995 19.4567 14.04 19.52 14.11C19.5833 14.1786 19.615 14.2643 19.615 14.367C19.615 14.535 19.565 14.657 19.465 14.733C19.365 14.8083 19.231 14.8256 19.063 14.785C18.817 14.735 18.565 14.7006 18.307 14.682C18.0483 14.6633 17.7793 14.654 17.5 14.654C16.9767 14.654 16.462 14.7073 15.956 14.814C15.4493 14.9213 14.966 15.0736 14.506 15.271C14.334 15.349 14.1873 15.348 14.066 15.268C13.9453 15.188 13.885 15.0556 13.885 14.871ZM13.885 12.179C13.885 12.1056 13.9103 12.0316 13.961 11.957C14.0117 11.8816 14.0717 11.8253 14.141 11.788C14.6497 11.5573 15.1873 11.3813 15.754 11.26C16.3207 11.138 16.9027 11.077 17.5 11.077C17.82 11.077 18.1233 11.0946 18.41 11.13C18.6967 11.1653 18.992 11.2163 19.296 11.283C19.382 11.303 19.4567 11.3476 19.52 11.417C19.5833 11.4863 19.615 11.5723 19.615 11.675C19.615 11.843 19.565 11.9646 19.465 12.04C19.365 12.116 19.231 12.1333 19.063 12.092C18.817 12.042 18.565 12.0076 18.307 11.989C18.0483 11.971 17.7793 11.962 17.5 11.962C16.964 11.962 16.4397 12.013 15.927 12.115C15.4137 12.2176 14.927 12.3613 14.467 12.546C14.2957 12.6113 14.1557 12.6093 14.047 12.54C13.939 12.4713 13.885 12.351 13.885 12.179Z" fill="#D15353"/>
</svg>
