<svg width="25" height="25" viewBox="0 0 25 25" fill="none" xmlns="http://www.w3.org/2000/svg">
<path d="M13 17.8199C13.81 17.3666 14.6277 17.0399 15.453 16.8399C16.2777 16.6386 17.1267 16.5379 18 16.5379C18.6 16.5379 19.1393 16.5752 19.618 16.6499C20.0973 16.7246 20.5197 16.8232 20.885 16.9459C21.0383 17.0099 21.1793 17.0002 21.308 16.9169C21.436 16.8336 21.5 16.7022 21.5 16.5229V7.50791C21.5 7.39258 21.468 7.28991 21.404 7.19991C21.34 7.10991 21.231 7.03325 21.077 6.96991C20.527 6.77458 20.0267 6.64125 19.576 6.56991C19.1253 6.49791 18.6 6.46191 18 6.46191C17.1267 6.46191 16.2557 6.59058 15.387 6.84791C14.5177 7.10591 13.722 7.49258 13 8.00791V17.8199ZM12.5 18.9559C12.3433 18.9559 12.1993 18.9362 12.068 18.8969C11.9367 18.8576 11.8113 18.8076 11.692 18.7469C10.9653 18.3502 10.2087 18.0496 9.422 17.8449C8.634 17.6402 7.82667 17.5379 7 17.5379C6.48 17.5379 5.96867 17.5816 5.466 17.6689C4.964 17.7562 4.47533 17.8962 4 18.0889C3.63733 18.2336 3.29667 18.1899 2.978 17.9579C2.65933 17.7259 2.5 17.4052 2.5 16.9959V7.33091C2.5 7.08358 2.565 6.85391 2.695 6.64191C2.825 6.43058 3.00733 6.28325 3.242 6.19991C3.83333 5.94458 4.44533 5.75791 5.078 5.63991C5.71067 5.52125 6.35133 5.46191 7 5.46191C7.98 5.46191 8.93533 5.60291 9.866 5.88491C10.7973 6.16691 11.6753 6.57691 12.5 7.11491C13.3247 6.57691 14.2027 6.16691 15.134 5.88491C16.0653 5.60291 17.0207 5.46191 18 5.46191C18.6487 5.46191 19.2893 5.52091 19.922 5.63891C20.5553 5.75758 21.1673 5.94458 21.758 6.19991C21.9927 6.28325 22.175 6.43058 22.305 6.64191C22.435 6.85391 22.5 7.08358 22.5 7.33091V16.9959C22.5 17.4052 22.328 17.7192 21.984 17.9379C21.6393 18.1579 21.2727 18.1952 20.884 18.0499C20.4213 17.8699 19.9487 17.7399 19.466 17.6599C18.9833 17.5786 18.4947 17.5379 18 17.5379C17.1733 17.5379 16.3663 17.6402 15.579 17.8449C14.7917 18.0496 14.0347 18.3499 13.308 18.7459C13.188 18.8072 13.0627 18.8576 12.932 18.8969C12.8007 18.9362 12.6567 18.9559 12.5 18.9559ZM14.385 9.44791C14.385 9.37458 14.4103 9.30058 14.461 9.22591C14.5117 9.15058 14.5717 9.09458 14.641 9.05791C15.1497 8.82725 15.6873 8.65058 16.254 8.52791C16.8207 8.40658 17.4027 8.34591 18 8.34591C18.32 8.34591 18.6233 8.36358 18.91 8.39891C19.1967 8.43425 19.492 8.48525 19.796 8.55191C19.882 8.57191 19.9567 8.61691 20.02 8.68691C20.0833 8.75558 20.115 8.84125 20.115 8.94391C20.115 9.11191 20.065 9.23391 19.965 9.30991C19.865 9.38525 19.731 9.40258 19.563 9.36191C19.317 9.31191 19.065 9.27758 18.807 9.25891C18.5483 9.24025 18.2793 9.23091 18 9.23091C17.464 9.23091 16.9397 9.28225 16.427 9.38491C15.9143 9.48758 15.4277 9.63091 14.967 9.81491C14.7957 9.88025 14.6557 9.87858 14.547 9.80991C14.439 9.74058 14.385 9.61991 14.385 9.44791ZM14.385 14.8709C14.385 14.7976 14.4103 14.7202 14.461 14.6389C14.5117 14.5576 14.5717 14.4986 14.641 14.4619C15.1237 14.2306 15.6613 14.0572 16.254 13.9419C16.846 13.8266 17.428 13.7689 18 13.7689C18.32 13.7689 18.6233 13.7866 18.91 13.8219C19.1967 13.8572 19.492 13.9082 19.796 13.9749C19.882 13.9949 19.9567 14.0399 20.02 14.1099C20.0833 14.1786 20.115 14.2642 20.115 14.3669C20.115 14.5349 20.065 14.6569 19.965 14.7329C19.865 14.8082 19.731 14.8256 19.563 14.7849C19.317 14.7349 19.065 14.7006 18.807 14.6819C18.5483 14.6632 18.2793 14.6539 18 14.6539C17.4767 14.6539 16.962 14.7072 16.456 14.8139C15.9493 14.9212 15.466 15.0736 15.006 15.2709C14.834 15.3489 14.6873 15.3479 14.566 15.2679C14.4453 15.1879 14.385 15.0556 14.385 14.8709ZM14.385 12.1789C14.385 12.1056 14.4103 12.0316 14.461 11.9569C14.5117 11.8816 14.5717 11.8252 14.641 11.7879C15.1497 11.5572 15.6873 11.3812 16.254 11.2599C16.8207 11.1379 17.4027 11.0769 18 11.0769C18.32 11.0769 18.6233 11.0946 18.91 11.1299C19.1967 11.1652 19.492 11.2162 19.796 11.2829C19.882 11.3029 19.9567 11.3476 20.02 11.4169C20.0833 11.4862 20.115 11.5722 20.115 11.6749C20.115 11.8429 20.065 11.9646 19.965 12.0399C19.865 12.1159 19.731 12.1332 19.563 12.0919C19.317 12.0419 19.065 12.0076 18.807 11.9889C18.5483 11.9709 18.2793 11.9619 18 11.9619C17.464 11.9619 16.9397 12.0129 16.427 12.1149C15.9137 12.2176 15.427 12.3612 14.967 12.5459C14.7957 12.6112 14.6557 12.6092 14.547 12.5399C14.439 12.4712 14.385 12.3509 14.385 12.1789Z" fill="#F9EAEA"/>
</svg>
